<svg width="175" height="76" viewBox="0 0 175 76" fill="none" xmlns="http://www.w3.org/2000/svg">
<path d="M26.6237 11.3037C22.471 13.6601 9.16225 23.0448 4.32216 28.77C0.0267073 33.851 3.97713 42.415 9.36153 52.1208C13.9222 60.3418 26.7237 65.7844 39.5109 70.3704C51.6677 74.7304 70.4424 73.461 96.1779 72.8303C119.359 72.2623 136.048 68.674 145.233 66.3768C153.351 64.3466 162.165 57.3145 167.992 51.8779C172.919 47.2818 172.513 41.3786 172.475 33.3331C172.446 27.2166 165.886 21.2651 160.873 16.5894C153.686 9.88495 135.735 5.54143 114.36 3.32867C103.395 2.19358 85.3006 2.34675 69.8313 3.05616C41.9777 5.66627 21.8457 10.5946 10.1913 15.5128C5.90922 17.4609 4.94096 18.297 3.94336 19.1584M26.6237 11.3037C22.471 13.6601 9.16225 23.0448 4.32216 28.77C0.0267073 33.851 3.97713 42.415 9.36153 52.1208C13.9222 60.3418 26.7237 65.7844 39.5109 70.3704C51.6677 74.7304 70.4424 73.461 96.1779 72.8303C119.359 72.2623 136.048 68.674 145.233 66.3768C153.351 64.3466 162.165 57.3145 167.992 51.8779C172.919 47.2818 172.513 41.3786 172.475 33.3331C172.446 27.2166 165.886 21.2651 160.873 16.5894C153.686 9.88495 135.735 5.54143 114.36 3.32867C103.395 2.19358 85.3006 2.34675 69.8313 3.05616C41.9777 5.66627 21.8457 10.5946 10.1913 15.5128C5.90922 17.4609 4.94096 18.297 3.94336 19.1584" stroke="white" stroke-width="5" stroke-linejoin="round"/>
</svg>
