<svg width="303" height="531" viewBox="0 0 303 531" fill="none" xmlns="http://www.w3.org/2000/svg">
<path d="M216.975 421.534L219.015 463.78L221.879 494.396L214.016 521L191.016 525.013L153.99 514.502L148.047 500.964L139.4 444.5L130.531 394.952L116.016 451.5L117.554 472.57L112.246 508.3L82.0161 508.3L59.1815 500.417L61.0161 463.78L59.5183 412.967L58.5161 359L46.0161 371L38.0161 366L42.0161 349L42.0161 335L48.4454 285.495L39.8743 289.645L20.6174 278.107L5.6096 257.437L19.0159 220.74L31.5671 192.233L33.1799 157.039L37.997 136.783L37.0493 118.101L31.5162 94.5001L30.0162 81.5001L25.5161 76.5L18.5163 71.0001L18.5162 63.5L24.5161 54.5L24.5161 41L30.0162 26.5L41.0161 12.5L48.0161 8.5L53.0161 7L63.0161 5.00003L72.5161 5.00003L85.5161 5L101.516 15L109.016 35L128.516 65.5L158.844 80.2529L169.046 91.8926L183.905 94.1L190.335 101.925L284.248 158.543L297.421 181.832L295.529 194.568L243.39 229.126L214.516 242.5L228.516 271.5L238.354 306.838L235.043 329.125L218.59 349.822L216.975 421.534Z" stroke="#5298A0" stroke-width="10"/>
</svg>
